<svg width="200" height="85" viewBox="0 0 200 85" fill="none" xmlns="http://www.w3.org/2000/svg">
<path d="M182.805 85H199.423V75.8929C196.363 75.8929 193.884 74.5342 193.884 72.8571C193.884 71.18 196.363 69.8214 199.423 69.8214V63.75C196.363 63.75 193.884 62.3914 193.884 60.7143C193.884 59.0372 196.363 57.6786 199.423 57.6786V51.6071C196.363 51.6071 193.884 50.2485 193.884 48.5714C193.884 46.8943 196.363 45.5357 199.423 45.5357V39.4643C196.363 39.4643 193.884 38.1057 193.884 36.4286C193.884 34.7515 196.363 33.3929 199.423 33.3929V27.3214C196.363 27.3214 193.884 25.9628 193.884 24.2857C193.884 22.6086 196.363 21.25 199.423 21.25V15.1786C196.363 15.1786 193.884 13.82 193.884 12.1429C193.884 10.4658 196.363 9.10714 199.423 9.10714V0L182.805 0C182.805 1.6771 180.325 3.03571 177.265 3.03571C174.205 3.03571 171.725 1.6771 171.725 0L160.646 0C160.646 1.6771 158.167 3.03571 155.107 3.03571C152.047 3.03571 149.567 1.6771 149.567 0L138.488 0C138.488 1.6771 136.009 3.03571 132.949 3.03571C129.888 3.03571 127.409 1.6771 127.409 0L116.33 0C116.33 1.6771 113.851 3.03571 110.791 3.03571C107.73 3.03571 105.251 1.6771 105.251 0L94.172 0C94.172 1.6771 91.6928 3.03571 88.6325 3.03571C85.5721 3.03571 83.093 1.6771 83.093 0L72.0139 0C72.0139 1.6771 69.5347 3.03571 66.4744 3.03571C63.414 3.03571 60.9348 1.6771 60.9348 0L49.8558 0C49.8558 1.6771 47.3766 3.03571 44.3163 3.03571C41.2559 3.03571 38.7767 1.6771 38.7767 0L27.6977 0C27.6977 1.6771 25.2185 3.03571 22.1581 3.03571C19.0978 3.03571 16.6186 1.6771 16.6186 0L1.52588e-05 0V9.10714C3.06036 9.10714 5.53954 10.4658 5.53954 12.1429C5.53954 13.82 3.06036 15.1786 1.52588e-05 15.1786V21.25C3.06036 21.25 5.53954 22.6086 5.53954 24.2857C5.53954 25.9628 3.06036 27.3214 1.52588e-05 27.3214V33.3929C3.06036 33.3929 5.53954 34.7515 5.53954 36.4286C5.53954 38.1057 3.06036 39.4643 1.52588e-05 39.4643V45.5357C3.06036 45.5357 5.53954 46.8943 5.53954 48.5714C5.53954 50.2485 3.06036 51.6071 1.52588e-05 51.6071V57.6786C3.06036 57.6786 5.53954 59.0372 5.53954 60.7143C5.53954 62.3914 3.06036 63.75 1.52588e-05 63.75V69.8214C3.06036 69.8214 5.53954 71.18 5.53954 72.8571C5.53954 74.5342 3.06036 75.8929 1.52588e-05 75.8929V85H16.6186C16.6186 83.3229 19.0978 81.9643 22.1581 81.9643C25.2185 81.9643 27.6977 83.3229 27.6977 85H38.7767C38.7767 83.3229 41.2559 81.9643 44.3163 81.9643C47.3766 81.9643 49.8558 83.3229 49.8558 85H60.9348C60.9348 83.3229 63.414 81.9643 66.4744 81.9643C69.5347 81.9643 72.0139 83.3229 72.0139 85H83.093C83.093 83.3229 85.5721 81.9643 88.6325 81.9643C91.6928 81.9643 94.172 83.3229 94.172 85L105.251 85C105.251 83.3229 107.73 81.9643 110.791 81.9643C113.851 81.9643 116.33 83.3229 116.33 85H127.409C127.409 83.3229 129.888 81.9643 132.949 81.9643C136.009 81.9643 138.488 83.3229 138.488 85H149.567C149.567 83.3229 152.047 81.9643 155.107 81.9643C158.167 81.9643 160.646 83.3229 160.646 85L171.725 85C171.725 83.3229 174.205 81.9643 177.265 81.9643C180.325 81.9643 182.805 83.3229 182.805 85ZM186.197 82.5716C184.562 80.7743 181.174 79.5359 177.265 79.5359C173.356 79.5359 169.968 80.7743 168.333 82.5716L164.036 82.5716C162.401 80.7743 159.013 79.5359 155.104 79.5359C151.195 79.5359 147.807 80.7743 146.172 82.5716H141.875C140.24 80.7743 136.852 79.5359 132.943 79.5359C129.034 79.5359 125.647 80.7743 124.011 82.5716H119.714C118.079 80.7743 114.691 79.5359 110.782 79.5359C106.873 79.5359 103.486 80.7743 101.85 82.5716H97.5536C95.9183 80.7743 92.5304 79.5359 88.6215 79.5359C84.7126 79.5359 81.3247 80.7743 79.6894 82.5716H75.3927C73.7574 80.7743 70.3695 79.5359 66.4606 79.5359C62.5517 79.5359 59.1638 80.7743 57.5285 82.5716H53.2318C51.5965 80.7743 48.2086 79.5359 44.2997 79.5359C40.3908 79.5359 37.003 80.7743 35.3676 82.5716H31.0709C29.4357 80.7743 26.0477 79.5359 22.1388 79.5359C18.2299 79.5359 14.8421 80.7743 13.2067 82.5716H4.43369V77.752C7.71353 76.8559 9.97322 74.9993 9.97322 72.8571C9.97322 70.715 7.71353 68.8585 4.43369 67.9623V65.6076C7.71353 64.7115 9.97322 62.8549 9.97322 60.7128C9.97322 58.5707 7.71353 56.7141 4.43369 55.8179V53.4633C7.71353 52.5671 9.97322 50.7105 9.97322 48.5684C9.97322 46.4263 7.71353 44.5697 4.43369 43.6735V41.3189C7.71353 40.4227 9.97322 38.5662 9.97322 36.424C9.97322 34.2819 7.71353 32.4253 4.43369 31.5291V29.1745C7.71353 28.2784 9.97322 26.4218 9.97322 24.2796C9.97322 22.1375 7.71353 20.281 4.43369 19.3848V17.0301C7.71353 16.134 9.97322 14.2774 9.97322 12.1353C9.97322 9.99316 7.71353 8.13658 4.43369 7.2404V2.42922L13.2285 2.42922C14.8638 4.2266 18.2516 5.46494 22.1606 5.46494C26.0695 5.46494 29.4573 4.2266 31.0927 2.42922L35.3894 2.42922C37.0246 4.2266 40.4126 5.46494 44.3215 5.46494C48.2304 5.46494 51.6182 4.2266 53.2536 2.42922L57.5503 2.42922C59.1855 4.2266 62.5734 5.46494 66.4824 5.46494C70.3913 5.46494 73.7791 4.2266 75.4145 2.42922L79.7112 2.42922C81.3464 4.2266 84.7343 5.46494 88.6432 5.46494C92.5521 5.46494 95.94 4.2266 97.5753 2.42922L101.872 2.42922C103.507 4.2266 106.895 5.46494 110.804 5.46494C114.713 5.46494 118.101 4.2266 119.736 2.42922L124.033 2.42922C125.668 4.2266 129.056 5.46494 132.965 5.46494C136.874 5.46494 140.262 4.2266 141.897 2.42922L146.194 2.42922C147.829 4.2266 151.217 5.46494 155.126 5.46494C159.035 5.46494 162.423 4.2266 164.058 2.42922L168.355 2.42922C169.99 4.2266 173.378 5.46494 177.287 5.46494C181.196 5.46494 184.584 4.2266 186.219 2.42922L194.992 2.42922V7.24885C191.712 8.14499 189.452 10.0033 189.452 12.1437C189.452 14.2841 191.712 16.1424 194.992 17.0386V19.3932C191.712 20.2877 189.452 22.146 189.452 24.2864C189.452 26.4268 191.712 28.285 194.992 29.1812V31.5359C191.712 32.4303 189.452 34.2886 189.452 36.429C189.452 38.5694 191.712 40.4277 194.992 41.3239V43.6785C191.712 44.573 189.452 46.4313 189.452 48.5716C189.452 50.712 191.712 52.5703 194.992 53.4665V55.8211C191.712 56.7156 189.452 58.5739 189.452 60.7143C189.452 62.8547 191.712 64.713 194.992 65.6092V67.9638C191.712 68.8582 189.452 70.7165 189.452 72.8569C189.452 74.9973 191.712 76.8556 194.992 77.7518V82.5714L186.197 82.5716Z" fill="#E9FB8E"/>
<path d="M22.1581 12.1428V72.8571L177.265 72.8571V12.1428L22.1581 12.1428ZM172.833 14.5712V70.4283L26.5897 70.4283V14.5712L172.833 14.5712Z" fill="#E9FB8E"/>
<path d="M75.5664 37.0425L77.5464 31.8945L78.2304 29.6985H78.3744L79.0584 31.8945L81.0204 37.0425H83.4324L86.1504 28.0965H84.1704L82.6764 33.1725L82.2624 35.4765H82.1184L81.4524 32.9925L79.5624 28.0965H77.0784L75.2064 32.9925L74.5404 35.4765H74.3964L73.9824 33.1725L72.4884 28.0965H70.4724L73.1544 37.0425H75.5664ZM89.7658 37.2225C91.7998 37.2225 93.2218 36.3225 93.6898 34.8105H93.8158V37.0425H95.5978V31.6065C95.5978 29.4645 94.3198 27.9165 91.4758 27.9165C88.6318 27.9165 86.9398 29.4465 86.9398 31.4805V31.5525H88.8658V31.4805C88.8658 30.1665 89.6758 29.6265 91.3318 29.6265C93.0418 29.6265 93.6898 30.1485 93.6898 31.6245V32.1465L89.6218 32.5785C87.8578 32.7765 86.7418 33.4965 86.7418 34.8825C86.7418 36.3585 87.9118 37.2225 89.7658 37.2225ZM88.6858 34.7565C88.6858 34.0545 89.1718 33.8205 90.1798 33.6945L93.6898 33.2985C93.6898 35.0625 92.3218 35.8185 90.2878 35.8185C89.1718 35.8185 88.6858 35.4765 88.6858 34.7565ZM101.221 36.2325C103.255 36.2325 104.461 35.2605 104.785 33.9105H104.911V36.1065C104.911 38.1045 104.173 38.6625 102.139 38.6625C100.231 38.6625 99.4752 38.1765 99.4752 36.8805H97.5492C97.5492 39.0405 99.3852 40.2825 102.031 40.2825C104.965 40.2825 106.837 39.0045 106.837 35.9985V28.0965H105.055V30.3285H104.947C104.623 28.7625 103.219 27.9165 101.347 27.9165C98.6292 27.9165 96.9732 29.5905 96.9732 32.0745C96.9732 34.5585 98.5572 36.2325 101.221 36.2325ZM98.9352 32.0745C98.9352 30.2385 100.033 29.6085 101.905 29.6085C103.795 29.6085 104.911 30.3825 104.911 31.8945V32.1465C104.911 33.7305 103.831 34.5585 101.851 34.5585C100.015 34.5585 98.9352 33.9105 98.9352 32.0745ZM110.58 37.0425V32.6145C110.58 30.6345 111.246 29.6625 113.172 29.6625C114.9 29.6625 115.584 30.4185 115.584 32.1825V37.0425H117.51V32.6145C117.51 30.6345 118.194 29.6625 120.102 29.6625C121.83 29.6625 122.532 30.4185 122.532 32.1825V37.0425H124.458V31.6605C124.458 29.5005 123.288 27.9165 120.966 27.9165C118.698 27.9165 117.69 29.3385 117.456 30.8685H117.348C117.096 29.1585 115.998 27.9165 113.964 27.9165C111.732 27.9165 110.76 29.3025 110.526 30.7965H110.418V28.0965H108.636V37.0425H110.58ZM128.14 27.0525V24.9825H126.196V27.0525H128.14ZM128.14 37.0425V28.0965H126.196V37.0425H128.14ZM57.4061 62.1025V56.5225H57.4781C57.8381 58.1605 59.1341 59.2225 61.1501 59.2225C63.9401 59.2225 65.4701 57.3505 65.4701 54.5785C65.4701 51.8065 63.9041 49.9165 61.1321 49.9165C59.0261 49.9165 57.7661 50.9245 57.4061 52.5805H57.2441V50.0965H55.4621V62.1025H57.4061ZM57.4061 54.7225V54.5605C57.4061 52.6345 58.5221 51.6985 60.5201 51.6985C62.3921 51.6985 63.5261 52.4185 63.5261 54.5785C63.5261 56.7205 62.4101 57.4585 60.4841 57.4585C58.5761 57.4585 57.4061 56.5585 57.4061 54.7225ZM71.3895 59.2225C74.3775 59.2225 76.3755 57.3325 76.3755 54.5785C76.3755 51.7885 74.3775 49.9165 71.3895 49.9165C68.4195 49.9165 66.4215 51.7885 66.4215 54.5785C66.4215 57.3325 68.4195 59.2225 71.3895 59.2225ZM71.3895 57.4945C69.2295 57.4945 68.3295 56.4685 68.3295 54.5785C68.3295 52.6705 69.2295 51.6265 71.3895 51.6265C73.5675 51.6265 74.4675 52.6705 74.4675 54.5785C74.4675 56.4685 73.5675 57.4945 71.3895 57.4945ZM82.0163 59.2225C84.5363 59.2225 86.1923 58.2325 86.1923 56.5585C86.1923 55.0825 85.2203 54.3625 83.0963 54.0925L81.0263 53.8045C79.6763 53.6245 79.3163 53.3725 79.3163 52.6705C79.3163 51.8245 79.8923 51.4645 81.5303 51.4645C83.5103 51.4645 84.0503 52.0225 84.0503 53.0845V53.1925H85.9763V53.1385C85.9763 51.0145 84.3203 49.9165 81.5843 49.9165C78.8303 49.9165 77.4083 51.0325 77.4083 52.5985C77.4083 54.0925 78.4343 54.8125 80.1263 55.0285L82.5743 55.3525C83.8523 55.5325 84.2843 55.7665 84.2843 56.5045C84.2843 57.2965 83.7623 57.6565 82.0163 57.6565C80.1443 57.6565 79.4423 57.2785 79.4423 56.1085V55.9645H77.4983V56.0185C77.4983 58.0885 79.1363 59.2225 82.0163 59.2225ZM93.4629 59.0425V57.2965H91.8429C90.7269 57.2965 90.2229 57.0085 90.2229 55.9105V51.7165H93.4629V50.0965H90.2229V48.1345H88.2969V50.0965H86.7849V51.7165H88.2969V56.0185C88.2969 58.1965 89.4849 59.0425 91.4109 59.0425H93.4629ZM99.1969 59.2225C101.879 59.2225 103.841 57.7105 103.841 55.4785V55.2805H101.915V55.4065C101.915 56.7925 100.907 57.4765 99.1609 57.4765C97.1449 57.4765 96.2449 56.5045 96.2449 54.5785C96.2449 52.6165 97.1449 51.6625 99.1609 51.6625C100.907 51.6625 101.915 52.3465 101.915 53.7325V53.8405H103.841V53.6605C103.841 51.4285 101.879 49.9165 99.1969 49.9165C96.2449 49.9165 94.3189 51.7885 94.3189 54.5785C94.3189 57.3325 96.2449 59.2225 99.1969 59.2225ZM107.906 59.2225C109.94 59.2225 111.362 58.3225 111.83 56.8105H111.956V59.0425H113.738V53.6065C113.738 51.4645 112.46 49.9165 109.616 49.9165C106.772 49.9165 105.08 51.4465 105.08 53.4805V53.5525H107.006V53.4805C107.006 52.1665 107.816 51.6265 109.472 51.6265C111.182 51.6265 111.83 52.1485 111.83 53.6245V54.1465L107.762 54.5785C105.998 54.7765 104.882 55.4965 104.882 56.8825C104.882 58.3585 106.052 59.2225 107.906 59.2225ZM106.826 56.7565C106.826 56.0545 107.312 55.8205 108.32 55.6945L111.83 55.2985C111.83 57.0625 110.462 57.8185 108.428 57.8185C107.312 57.8185 106.826 57.4765 106.826 56.7565ZM117.418 59.0425V54.0205C117.418 52.4185 118.048 51.5725 119.578 51.5725C120.91 51.5725 121.45 52.1665 121.45 53.4445V54.2365H123.376V53.0665C123.376 51.3745 122.494 49.9165 120.46 49.9165C118.624 49.9165 117.652 51.0685 117.382 52.5085H117.256V50.0965H115.474V59.0425H117.418ZM128.539 59.2225C130.555 59.2225 131.869 58.2505 132.247 56.4685H132.373V59.0425H134.155V46.9825H132.211V52.5265H132.103C131.743 51.0145 130.537 49.9165 128.413 49.9165C125.695 49.9165 124.147 51.7885 124.147 54.5785C124.147 57.3325 125.713 59.2225 128.539 59.2225ZM126.109 54.5785C126.109 52.4185 127.225 51.6805 129.097 51.6805C131.095 51.6805 132.211 52.6165 132.211 54.5245V54.6685C132.211 56.5405 131.041 57.4405 129.133 57.4405C127.207 57.4405 126.109 56.7205 126.109 54.5785ZM140.182 59.2225C142.702 59.2225 144.358 58.2325 144.358 56.5585C144.358 55.0825 143.386 54.3625 141.262 54.0925L139.192 53.8045C137.842 53.6245 137.482 53.3725 137.482 52.6705C137.482 51.8245 138.058 51.4645 139.696 51.4645C141.676 51.4645 142.216 52.0225 142.216 53.0845V53.1925H144.142V53.1385C144.142 51.0145 142.486 49.9165 139.75 49.9165C136.996 49.9165 135.574 51.0325 135.574 52.5985C135.574 54.0925 136.6 54.8125 138.292 55.0285L140.74 55.3525C142.018 55.5325 142.45 55.7665 142.45 56.5045C142.45 57.2965 141.928 57.6565 140.182 57.6565C138.31 57.6565 137.608 57.2785 137.608 56.1085V55.9645H135.664V56.0185C135.664 58.0885 137.302 59.2225 140.182 59.2225Z" fill="#E9FB8E"/>
</svg>
